<?xml version="1.0" encoding="utf-8"?>
<!-- Generator: Adobe Illustrator 24.1.1, SVG Export Plug-In . SVG Version: 6.00 Build 0)  -->
<svg version="1.1" id="TheMorfi" xmlns="http://www.w3.org/2000/svg" xmlns:xlink="http://www.w3.org/1999/xlink" x="0px" y="0px"
	 viewBox="0 0 2097.64 1600.5" style="enable-background:new 0 0 2097.64 1600.5;" xml:space="preserve">
<style type="text/css">
	.st0{fill:#FFFFFF;}
	.st1{fill:#009C00;}
	.st2{stroke:#FFFFFF;stroke-miterlimit:10;}
	.st3{fill:#00C600;}
	.st4{fill:#009736;}
</style>
<g id="Icon">
	<g id="GroupIcon">
		<circle id="WhiteBackground" class="st0" cx="1046" cy="437" r="352"/>
		<path id="Shape" d="M1053,44c220.08,8.03,386.94,184.12,380,401c-7.1,221.68-185.37,392.63-403,384
			c-213.38-8.46-380.51-190.06-373-403C664.74,206.49,841.29,36.28,1053,44z M940,298c-2.29,2.07-6.71,5.93-9,8
			c-29.18-35.52-55.82-73.48-85-109c-1.92,1.69-9.08,5.31-11,7c27.27,38.42,57.73,73.58,85,112c-3.06,2.28-7.94,6.72-11,9
			c-28.79-36.95-56.21-75.05-85-112c-3.12,2.28-5.88,3.72-9,6c26.24,36.16,51.39,73.92,79,109c15.45,19.63,35.11,31.95,63,20
			c4.89-2.09,16.17,2.42,21,6c58.43,43.25,56.14,73.08,13,131c-37.49,50.33-69.48,96.62-104,149c-6.53,9.91-11.35,26.48,3,37
			c12.43,8.61,28.14,5.66,38.48-4.17c8.76-8.32,20.22-26.4,27.52-38.83c33.37-56.84,64.22-108.58,100-170
			c19.65,29.26,34.31,49.27,49,74c21.57,36.3,48.51,75.32,71,111c3.14,4.98,16.69,7.76,28,2c8.05-4.1,9.42-15.52,9-20
			c-1.16-12.34-9.23-22.61-17-33c-31.8-42.53-63.67-85.14-95-128c-9.65-13.2-23.97-36.82-19-44c18.82-27.17,27.34-67.44,69-72
			c61.5-6.73,86.85-27.92,102-86c8.55-32.75,16.93-69.02-14-91c-31.72-22.55-63.67,3.09-91,22c-49.94,34.57-56.25,63.33-40,126
			c1.53,5.9-5.43,23.68-9,28c-16.49,19.95-27.33,36.35-46,57c-23.65-27.7-65.27-55.02-67-81c-2.88-43.11-29.07-63.95-51-91
			c-17.88-22.06-35.86-40.96-55-62c-1.75,1.72-4.25,3.28-6,5c28.67,35.65,56.33,70.35,85,106c-2.96,2.47-5.04,5.53-8,8
			c-30.14-35.69-59.86-70.31-90-106c-2.02,1.6-4.98,4.4-7,6C881.89,225.43,912.1,261.57,940,298z M968,690
			c21.75,38.54,51.59,67.15,98,69c35.15,1.4,73.2-24.27,91-62C1088.94,751.14,1027.97,741.63,968,690z"/>
		<path id="GreenCircle" class="st1" d="M1478,437c-0.37,241.18-196.56,438.39-438,437c-233.37-1.34-427.98-199.47-428-437
			C611.97,197.9,807.48-0.26,1042.69,0C1283.9,0.27,1478.37,194.5,1478,437z M632,436c-0.49,229.66,182.56,417.26,411,419
			c226.55,1.72,415.76-187.84,417-417c1.25-230.9-188.62-419.36-417-419C815.36,19.36,632.48,206.48,632,436z"/>
	</g>
</g>
<g id="TM_x26_HL">
	<g id="HealthyLife">
		<path class="st2" d="M153.5,1411.5v188h-14v-90h-118v90h-14v-188h14v88h118v-88H153.5z"/>
		<path class="st2" d="M356.16,1588.5l-0.26,11H245.5v-188h113v11h-99v77h83v11h-83v78H356.16z"/>
		<path class="st2" d="M580.21,1599.5h-10.74c-1.24,0-2.25-0.33-3.05-0.99c-0.79-0.66-1.41-1.52-1.85-2.58l-21.98-54.42h-92.03
			l-21.98,54.42c-0.35,0.97-0.97,1.81-1.85,2.52c-0.88,0.71-1.94,1.06-3.18,1.06h-10.61l76.93-188h13.42L580.21,1599.5z
			 M538.73,1531.5l-38.36-95.23c-1.33-3.11-2.62-6.84-3.86-11.19c-0.53,2.13-1.11,4.15-1.73,6.06c-0.62,1.91-1.29,3.66-2,5.26
			l-38.36,95.1H538.73z"/>
		<path class="st2" d="M751.5,1588.5v11h-103v-188h14v177H751.5z"/>
		<path class="st2" d="M916.5,1423.5h-66v177h-14v-177h-67v-12h147V1423.5z"/>
		<path class="st2" d="M1130.5,1411.5v188h-14v-90h-117v90h-14v-188h14v88h117v-88H1130.5z"/>
		<path class="st2" d="M1281.5,1522.35v77.15h-14v-77.15l-69.24-110.85h11.99c1.24,0.04,2.26,0.33,3.06,0.91
			c0.8,0.58,1.46,1.4,2,2.46l53.94,86.57c1.15,2.04,2.22,4.02,3.2,5.93c0.98,1.91,1.82,3.8,2.53,5.66c0.71-1.86,1.51-3.75,2.4-5.66
			c0.89-1.91,1.91-3.88,3.06-5.93l53.94-86.57c0.44-0.98,1.09-1.77,1.93-2.4c0.84-0.62,1.89-0.93,3.13-0.97h11.99L1281.5,1522.35z"
			/>
		<path class="st2" d="M1621.5,1588.5v11h-103v-188h14v177H1621.5z"/>
		<path class="st2" d="M1703.5,1599.5h-14v-188h14V1599.5z"/>
		<path class="st2" d="M1810.5,1422.5v80h86v11h-86v86h-14v-188h113v11H1810.5z"/>
		<path class="st2" d="M2094.16,1588.5l-0.26,11H1983.5v-188h113v11h-99v77h83v11h-83v78H2094.16z"/>
	</g>
	<g id="Themorfi">
		<g id="Morfi">
			<path class="st3" d="M1276,1179c-2.68-50.47-5.54-116.9-5-162h-2.85c-12.31,42.3-24.95,86.21-43.15,136l-65,175h-35l-60-171
				c-17.13-50.86-29.83-97.17-40-140h-2c-1.07,45.1-2.78,104.78-6,159l-11,156h-42l24-362h58l63,173c15,44.47,25.89,86.49,35,124h4
				c9.11-36.42,19.93-78.47,36-124l65-173h59l21,362h-42L1276,1179z"/>
			<path class="st3" d="M1638,1199c0,95.89-66.32,136-129,136c-70.18,0-125-51.04-125-133c0-86.78,56.22-137,128-137
				C1586.46,1065,1638,1119.71,1638,1199z M1431,1200c0,56.79,32.93,101,79,101c45,0,79-42.61,79-101c0-43.93-21.29-100-77-100
				C1456.28,1100,1431,1150.72,1431,1200z"/>
			<path class="st3" d="M1698,1152.05c0-30.5-0.41-55.98-2-80.05h41v50h4c11.83-34.82,38.19-56.08,69.91-56.08
				c5.38,0,9.79,0.01,14.09,1.08v44c-4.84-1.07-8.55-2-15-2c-33.33,0-56.55,24.64-63,60c-1.07,6.43-4,15.69-4,23.72V1331h-45
				V1152.05z"/>
			<path class="st3" d="M1892,1330v-224h-36v-34h38v-16c0-68.57,38.58-111,112-111c24.29,0,53.5,7.36,67,17l-13,36
				c-11.34-8.04-31.79-15-55-15c-50.21,0-65,32.75-65,74l-0.07,15H2090v258h-47v-223h-103v223H1892z"/>
		</g>
		<g id="The">
			<path class="st4" d="M108,1009H0v-40h265v40H155v322h-47V1009z"/>
			<path class="st4" d="M302,950h46v162h4c7.44-13.39,17.66-25.97,32-34c13.81-8.03,29.47-13,47-13c34.53,0,90,21.4,90,110.81V1330
				h-47v-149c0-41.79-15.99-77-60-77c-30.22,0-53.52,22.29-62,48c-2.65,6.43-4,11.89-4,21v157h-46V950z"/>
			<path class="st4" d="M625,1209c1.07,63.75,41.86,89,89,89c33.75,0,53.32-5.5,71-13l8,34c-16.61,7.5-44.75,16-86,16
				c-79.82,0-127-52.79-127-131s45.45-139.02,120.98-139.02c84.64,0,107.02,74.34,107.02,122.02c0,9.64-0.46,17.18-1,22H625z
				 M763.43,1177c0.54-30-13.24-79.02-66.27-79.02c-47.68,0-67.62,46.34-71.37,79.02H763.43z"/>
		</g>
	</g>
</g>
</svg>
