<?xml version="1.0" encoding="utf-8"?>
<!-- Generator: Adobe Illustrator 24.1.1, SVG Export Plug-In . SVG Version: 6.00 Build 0)  -->
<svg version="1.1" id="TheMorfi" xmlns="http://www.w3.org/2000/svg" xmlns:xlink="http://www.w3.org/1999/xlink" x="0px" y="0px"
	 viewBox="0 0 1584.69 1600" style="enable-background:new 0 0 1584.69 1600;" xml:space="preserve">
<style type="text/css">
	.st0{fill:#FFFFFF;}
	.st1{fill:#009C00;}
</style>
<g id="Icon">
	<g id="GroupIcon">
		<circle id="WhiteBackground" class="st0" cx="793.96" cy="800" r="644"/>
		<path id="Shape" d="M807.96,82c403,14.7,707.72,336.85,695,734c-13,405.94-340.49,718.8-739,703
			c-390.74-15.49-695.76-347.07-682-737C96.15,380.03,420.3,67.85,807.96,82z M599.96,548c-4.19,3.8-11.81,10.2-16,14
			c-53.44-65.05-103.56-134.95-157-200c-3.52,3.1-14.48,9.9-18,13c49.94,70.36,103.06,135.64,153,206c-5.61,4.17-12.39,11.83-18,16
			c-52.72-67.66-104.28-137.34-157-205c-5.71,4.18-10.29,7.82-16,12c48.05,66.21,96.44,136.77,147,201
			c28.29,35.94,62.92,54.88,114,33c8.95-3.83,27.15,6.45,36,13c107,79.2,109,129.93,30,236c-68.65,92.16-126.8,175.09-190,271
			c-11.96,18.15-25.27,52.73,1,72c22.77,15.76,50.89,10.91,69.83-7.09c16.04-15.24,31.81-37.16,45.17-59.91
			c61.12-104.08,122.49-210.52,188-323c35.98,53.58,71.09,101.71,98,147c39.49,66.47,77.81,126.67,119,192
			c5.75,9.13,31.29,17.55,52,7c14.74-7.51,17.77-33.79,17-42c-2.12-22.6-16.78-41.98-31-61c-58.23-77.87-117.64-155.51-175-234
			c-17.67-24.17-40.1-66.86-31-80c34.46-49.76,52.71-122.66,129-131c112.61-12.32,155.25-47.64,183-154
			c15.65-59.97,29.64-129.74-27-170c-58.09-41.29-113.96,7.36-164,42c-91.45,63.3-106.75,112.24-77,227c2.8,10.81-5.46,48.08-12,56
			c-30.19,36.53-53.81,61.18-88,99c-43.31-50.73-117.83-96.43-121-144c-5.26-78.94-50.84-115.47-91-165
			c-32.75-40.39-67.96-77.47-103-116c-3.2,3.15-8.8,5.85-12,9c52.51,65.28,104.49,128.72,157,194c-5.43,4.53-10.57,11.47-16,16
			c-55.19-65.36-108.81-130.64-164-196c-3.7,2.93-8.3,6.07-12,9C494.05,411.71,548.88,481.29,599.96,548z M651.96,1268
			c39.83,70.57,92.02,119.61,177,123c64.37,2.57,133.41-38.91,166-108C870.34,1382.13,761.79,1362.55,651.96,1268z"/>
		<path id="GreenCircle" class="st1" d="M1584.69,802.82c-0.68,441.65-361.08,799.7-803.19,797.17
			C354.15,1597.53,0.04,1235.11,0,800.16C-0.04,362.33,357.22-0.48,787.93,0C1229.63,0.49,1585.37,358.75,1584.69,802.82z
			 M34.96,798c-0.89,420.55,335.57,764.81,753.88,767.99c414.85,3.15,760.9-343.53,763.17-763.17
			c2.29-422.83-342.64-768.5-760.84-767.84C374.34,35.64,35.85,377.71,34.96,798z"/>
	</g>
</g>
</svg>
