<?xml version="1.0" encoding="utf-8"?>
<!-- Generator: Adobe Illustrator 24.1.1, SVG Export Plug-In . SVG Version: 6.00 Build 0)  -->
<svg version="1.1" id="Capa_2" xmlns="http://www.w3.org/2000/svg" xmlns:xlink="http://www.w3.org/1999/xlink" x="0px" y="0px"
	 viewBox="0 0 1198.28 1600" style="enable-background:new 0 0 1198.28 1600;" xml:space="preserve">
<style type="text/css">
	.st0{fill:#EC2D34;stroke:#EC2D34;stroke-miterlimit:10;}
	.st1{fill:#FFFFFF;}
</style>
<path class="st0" d="M10.03,9.5v1492c0.41,6.77,2.52,26.79,18,45c4.21,4.95,18.08,20.78,42,25c24.06,4.25,42.71-5.99,48-9
	c9.35-5.32,12.1-9.68,35-34c11.07-11.75,20.21-21.12,26-27c117.33-129.67,234.67-259.33,352-389c3.21-3.22,22.18-21.62,52-21
	c28.83,0.6,46.68,18.54,50,22c124,129.33,248,258.67,372,388c9.26,10.47,21.09,23.73,35,39c21.55,23.67,28.21,30.35,40,36
	c6.04,2.89,18.96,8.89,36,8c35.45-1.86,55.6-31.87,57-34c13.65-20.74,12.63-42.05,12-49c0-497.33,0-994.67,0-1492H10.03z"/>
<polygon class="st1" points="1103,1583 1089,1578.98 1089,10 1103,10 "/>
<polygon class="st1" points="94,1571.93 94,10 108,10 108,1568.63 "/>
<g>
	<path class="st1" d="M263.95,268.67c0,8.81-1.47,16.89-4.4,24.26c-2.94,7.37-7.06,13.71-12.38,19.03
		c-5.32,5.32-11.71,9.44-19.19,12.38c-7.48,2.94-15.79,4.4-24.92,4.4h-45.78V208.6h45.78c9.14,0,17.45,1.48,24.92,4.44
		c7.48,2.96,13.87,7.09,19.19,12.38c5.32,5.29,9.44,11.62,12.38,18.98C262.48,251.78,263.95,259.86,263.95,268.67z M241.02,268.67
		c0-6.59-0.87-12.5-2.62-17.74c-1.74-5.23-4.27-9.66-7.56-13.29c-3.3-3.63-7.28-6.41-11.96-8.35c-4.68-1.94-9.96-2.91-15.83-2.91
		h-23.35v84.58h23.35c5.87,0,11.15-0.97,15.83-2.91c4.68-1.94,8.67-4.72,11.96-8.35c3.29-3.63,5.82-8.06,7.56-13.29
		S241.02,275.26,241.02,268.67z"/>
	<path class="st1" d="M312.72,328.74h-22.43V208.6h22.43V328.74z"/>
	<path class="st1" d="M410.17,230.45c-0.66,1.16-1.37,2.01-2.12,2.53c-0.75,0.53-1.68,0.79-2.78,0.79c-1.16,0-2.42-0.43-3.78-1.29
		c-1.36-0.86-2.98-1.81-4.86-2.87c-1.88-1.05-4.09-2.01-6.6-2.87c-2.52-0.86-5.5-1.29-8.93-1.29c-3.1,0-5.82,0.37-8.14,1.12
		c-2.33,0.75-4.28,1.79-5.86,3.12c-1.58,1.33-2.76,2.92-3.53,4.78c-0.78,1.86-1.16,3.89-1.16,6.11c0,2.82,0.79,5.18,2.37,7.06
		c1.58,1.88,3.67,3.49,6.27,4.82c2.6,1.33,5.57,2.52,8.89,3.57c3.32,1.05,6.73,2.17,10.22,3.36c3.49,1.19,6.9,2.58,10.22,4.15
		s6.29,3.57,8.89,5.98c2.6,2.41,4.69,5.36,6.27,8.85c1.58,3.49,2.37,7.73,2.37,12.71c0,5.43-0.93,10.51-2.78,15.25
		c-1.86,4.74-4.57,8.86-8.14,12.38c-3.57,3.52-7.93,6.29-13.08,8.31c-5.15,2.02-11.05,3.03-17.7,3.03c-3.82,0-7.59-0.37-11.3-1.12
		c-3.71-0.75-7.27-1.81-10.68-3.2c-3.41-1.38-6.6-3.05-9.6-4.98c-2.99-1.94-5.65-4.1-7.98-6.48l6.56-10.72
		c0.55-0.77,1.27-1.43,2.16-1.95c0.89-0.53,1.83-0.79,2.82-0.79c1.38,0,2.88,0.57,4.49,1.7c1.61,1.14,3.52,2.4,5.73,3.78
		c2.21,1.38,4.8,2.65,7.77,3.78c2.96,1.14,6.52,1.7,10.68,1.7c6.37,0,11.3-1.51,14.79-4.53c3.49-3.02,5.23-7.35,5.23-13
		c0-3.16-0.79-5.73-2.37-7.73c-1.58-1.99-3.67-3.67-6.27-5.03c-2.6-1.36-5.57-2.51-8.89-3.45c-3.32-0.94-6.7-1.97-10.14-3.07
		c-3.43-1.11-6.81-2.44-10.14-3.99c-3.32-1.55-6.29-3.57-8.89-6.06c-2.6-2.49-4.69-5.61-6.27-9.35c-1.58-3.74-2.37-8.35-2.37-13.83
		c0-4.38,0.87-8.64,2.62-12.79c1.75-4.15,4.28-7.84,7.6-11.05c3.32-3.21,7.42-5.79,12.3-7.73c4.87-1.94,10.47-2.91,16.78-2.91
		c7.09,0,13.63,1.11,19.61,3.32c5.98,2.22,11.08,5.32,15.29,9.3L410.17,230.45z"/>
	<path class="st1" d="M526.48,300.4c1.22,0,2.3,0.47,3.24,1.41l8.81,9.55c-4.87,6.04-10.87,10.66-17.99,13.87
		c-7.12,3.21-15.66,4.82-25.63,4.82c-8.92,0-16.94-1.52-24.05-4.57c-7.12-3.05-13.2-7.28-18.24-12.71
		c-5.04-5.43-8.9-11.91-11.59-19.44c-2.69-7.53-4.03-15.76-4.03-24.67c0-9.03,1.44-17.29,4.32-24.8c2.88-7.5,6.94-13.97,12.17-19.4
		c5.23-5.43,11.48-9.65,18.73-12.67c7.26-3.02,15.29-4.53,24.09-4.53c8.75,0,16.52,1.44,23.3,4.32c6.78,2.88,12.56,6.65,17.32,11.3
		l-7.48,10.38c-0.44,0.67-1.01,1.25-1.7,1.75c-0.69,0.5-1.65,0.75-2.87,0.75c-0.83,0-1.69-0.23-2.58-0.71
		c-0.89-0.47-1.86-1.05-2.91-1.74c-1.05-0.69-2.27-1.45-3.66-2.29c-1.39-0.83-2.99-1.59-4.82-2.28c-1.83-0.69-3.95-1.27-6.36-1.74
		c-2.41-0.47-5.19-0.71-8.35-0.71c-5.37,0-10.29,0.96-14.75,2.87c-4.46,1.91-8.29,4.68-11.51,8.31c-3.21,3.63-5.71,8.06-7.48,13.29
		c-1.77,5.23-2.66,11.2-2.66,17.9c0,6.76,0.96,12.77,2.87,18.03c1.91,5.26,4.5,9.69,7.77,13.29c3.27,3.6,7.12,6.36,11.55,8.27
		c4.43,1.91,9.19,2.87,14.29,2.87c3.05,0,5.8-0.17,8.27-0.5c2.46-0.33,4.74-0.86,6.81-1.58c2.08-0.72,4.04-1.65,5.9-2.78
		c1.85-1.13,3.7-2.53,5.52-4.2c0.55-0.5,1.13-0.9,1.74-1.2C525.18,300.56,525.82,300.4,526.48,300.4z"/>
	<path class="st1" d="M672.54,268.67c0,8.81-1.45,16.96-4.36,24.47c-2.91,7.51-7.02,14-12.34,19.48s-11.71,9.76-19.19,12.84
		c-7.48,3.07-15.79,4.61-24.92,4.61c-9.08,0-17.36-1.54-24.84-4.61c-7.48-3.07-13.89-7.35-19.23-12.84
		c-5.35-5.48-9.49-11.98-12.42-19.48c-2.94-7.5-4.4-15.66-4.4-24.47s1.47-16.96,4.4-24.47c2.93-7.5,7.07-14,12.42-19.48
		c5.34-5.48,11.76-9.76,19.23-12.84c7.48-3.07,15.76-4.61,24.84-4.61c6.09,0,11.83,0.71,17.2,2.12c5.37,1.41,10.3,3.41,14.79,5.98
		c4.49,2.58,8.52,5.71,12.09,9.39c3.57,3.68,6.61,7.8,9.1,12.34c2.49,4.54,4.39,9.47,5.69,14.79
		C671.89,257.2,672.54,262.8,672.54,268.67z M649.69,268.67c0-6.59-0.89-12.5-2.66-17.74c-1.77-5.23-4.29-9.68-7.56-13.33
		c-3.27-3.66-7.24-6.45-11.92-8.39c-4.68-1.94-9.96-2.91-15.83-2.91c-5.87,0-11.15,0.97-15.83,2.91c-4.68,1.94-8.67,4.74-11.96,8.39
		c-3.3,3.66-5.83,8.1-7.6,13.33c-1.77,5.23-2.66,11.15-2.66,17.74c0,6.59,0.89,12.5,2.66,17.74c1.77,5.23,4.31,9.67,7.6,13.29
		c3.29,3.63,7.28,6.41,11.96,8.35c4.68,1.94,9.96,2.91,15.83,2.91c5.87,0,11.15-0.97,15.83-2.91c4.68-1.94,8.65-4.72,11.92-8.35
		c3.27-3.63,5.79-8.06,7.56-13.29C648.81,281.17,649.69,275.26,649.69,268.67z"/>
	<path class="st1" d="M747.23,310.71c4.32,0,8.18-0.72,11.59-2.16c3.41-1.44,6.27-3.46,8.6-6.06c2.33-2.6,4.11-5.76,5.36-9.47
		c1.25-3.71,1.87-7.86,1.87-12.46V208.6H797v71.95c0,7.15-1.15,13.75-3.45,19.81c-2.3,6.06-5.6,11.3-9.89,15.7
		c-4.29,4.4-9.51,7.84-15.66,10.3c-6.15,2.46-13.07,3.7-20.77,3.7c-7.75,0-14.71-1.23-20.85-3.7c-6.15-2.46-11.37-5.9-15.66-10.3
		c-4.29-4.4-7.59-9.64-9.89-15.7c-2.3-6.06-3.45-12.67-3.45-19.81V208.6h22.35v71.86c0,4.6,0.62,8.75,1.87,12.46
		c1.25,3.71,3.04,6.88,5.4,9.51c2.35,2.63,5.23,4.67,8.64,6.11C739.05,309.99,742.91,310.71,747.23,310.71z"/>
	<path class="st1" d="M930.17,208.6v120.13h-11.46c-1.77,0-3.25-0.29-4.45-0.87c-1.19-0.58-2.34-1.56-3.45-2.95l-62.73-80.09
		c0.33,3.66,0.5,7.03,0.5,10.14v73.78H828.9V208.6h11.71c0.94,0,1.76,0.04,2.45,0.12c0.69,0.08,1.3,0.25,1.83,0.5
		c0.53,0.25,1.04,0.61,1.54,1.08c0.5,0.47,1.05,1.09,1.66,1.87l62.98,80.42c-0.17-1.94-0.31-3.85-0.42-5.73
		c-0.11-1.88-0.17-3.63-0.17-5.23V208.6H930.17z"/>
	<path class="st1" d="M1047.48,226.96h-36.22v101.77h-22.35V226.96h-36.22V208.6h94.79V226.96z"/>
</g>
</svg>
